<svg id="Layer_1" data-name="Layer 1" xmlns="http://www.w3.org/2000/svg" xmlns:xlink="http://www.w3.org/1999/xlink" viewBox="0 0 246.39 246.05"><defs><linearGradient id="linear-gradient" x1="59.3" y1="232.88" x2="220.9" y2="71.28" gradientUnits="userSpaceOnUse"><stop offset="0" stop-color="#fca418"/><stop offset="0.25" stop-color="#fd6e00"/><stop offset="0.5" stop-color="#fc444f"/><stop offset="0.75" stop-color="#e136a8"/><stop offset="1" stop-color="#973bc3"/></linearGradient><linearGradient id="linear-gradient-2" x1="24.82" y1="174.79" x2="186.82" y2="12.79" xlink:href="#linear-gradient"/></defs><title>kosmos-color-full</title><path d="M241.62,92c-7.28,16.33-22.82,23.37-37.13,31.9-1.53,31.54-15.38,55.94-43.36,70.72s-55.83,12.45-83.54-4.08c6.74-3,12.65-5.64,18.61-8.18,12.19-5.18,23.57-11.82,34.72-18.89,3.5-2.22,4.71-5.22,3.56-7.91s-3.35-3.2-7.83-2.19c-15,3.35-29.88,7-44.94,9.87A265.36,265.36,0,0,1,53,166.76c-6.81.54-13.7.16-20.55.15-9.65,0-19-1.21-26.55-8.49,6.32,29.18,35,65.69,75.12,80.18a123,123,0,0,0,135.6-35.65C246.93,167.71,251.7,121.19,241.62,92Z" transform="translate(0 0.01)" style="fill:url(#linear-gradient)"/><path d="M29.93,129.76c.59,3.77,1.1,7.56,1.8,11.31.67,3.57,2.47,6.19,6.42,6.57,5.12-2.11,6-3.66,5.22-8.69-.68-4.44-1.64-8.9-1.71-13.36a83.44,83.44,0,0,1,8-37.34C59.2,67.79,74.87,54.06,95.85,46.44a76.82,76.82,0,0,1,36.91-4.1A81.27,81.27,0,0,1,178,63.08,78.48,78.48,0,0,1,198.85,93.3a15.5,15.5,0,0,0,1.89,3.52c1.95,2.68,3.91,3.31,6.44,2.26a5.63,5.63,0,0,0,3.55-6.87,51.78,51.78,0,0,0-2.53-6.51c-.91-2.09-1.91-4.15-3.24-7,13-.1,25.09-.13,35.2,8.24-6.83-30.58-36.84-67.56-79-81a123.52,123.52,0,0,0-135,41.22C-.71,81-5,126.17,4.76,154.73,7.54,145.4,20.32,132.73,29.93,129.76Z" transform="translate(0 0.01)" style="fill:url(#linear-gradient-2)"/></svg>